<svg xmlns="http://www.w3.org/2000/svg" width="22" height="22" viewBox="0 0 22 22"><defs><linearGradient id="a" x1="50%" x2="50%" y1="0%" y2="100%"><stop offset="0%" stop-color="#FB6F9D"/><stop offset="100%" stop-color="#F3806F"/></linearGradient><linearGradient id="b" x1="50%" x2="50%" y1="0%" y2="99.939%"><stop offset="0%" stop-color="#FB709D"/><stop offset="99.939%" stop-color="#F37F70"/></linearGradient><linearGradient id="c" x1="50%" x2="50%" y1="0%" y2="100%"><stop offset="0%" stop-color="#FB709D"/><stop offset="99.939%" stop-color="#F37F70"/></linearGradient><linearGradient id="d" x1="50%" x2="50%" y1="0%" y2="100%"><stop offset="0%" stop-color="#FB709D"/><stop offset="99.939%" stop-color="#F37F70"/></linearGradient><linearGradient id="e" x1="50%" x2="50%" y1="0%" y2="100%"><stop offset="0%" stop-color="#FB709D"/><stop offset="99.939%" stop-color="#F37F70"/></linearGradient></defs><g fill="none" fill-rule="evenodd" transform="translate(1 1)"><circle cx="10" cy="10" r="10" stroke="url(#a)"/><path fill="url(#b)" d="M10.276 11.936c-.05-3.294-.464-4.232-3.631-4.826 0 0-.446.59-1.485.59-1.039 0-1.485-.59-1.485-.59C.543 7.697.105 8.622.047 11.829c-.005.262-.007.276-.008.245v.346S.793 14 5.16 14c4.367 0 5.121-1.58 5.121-1.58v-.256c0 .019-.002-.017-.005-.228" transform="translate(5 3)"/><path fill="url(#c)" d="M10.312 12.164c.004-.031.001-.219 0 0" transform="translate(5 3)"/><path fill="url(#d)" d="M.07 12.115c0-.195-.002-.055 0 0" transform="translate(5 3)"/><path fill="url(#e)" d="M5.16 6.847c1.498 0 2.712-1.533 2.712-3.424C7.872 1.533 7.473 0 5.16 0S2.45 1.533 2.45 3.423c0 1.891 1.214 3.424 2.711 3.424" transform="translate(5 3)"/></g></svg>