<svg xmlns="http://www.w3.org/2000/svg" width="22" height="22" viewBox="0 0 22 22"><defs><linearGradient id="a" x1="50%" x2="50%" y1="0%" y2="100%"><stop offset="0%" stop-color="#FB6F9D"/><stop offset="100%" stop-color="#F3806F"/></linearGradient><linearGradient id="b" x1="50%" x2="50%" y1="0%" y2="100%"><stop offset="0%" stop-color="#F97394"/><stop offset="100%" stop-color="#F47D75"/></linearGradient></defs><g fill="none" fill-rule="evenodd" transform="translate(1 1)"><circle cx="10" cy="10" r="10" stroke="url(#a)"/><path fill="url(#b)" d="M16.85 7.641l-3.5-3.495a.5.5 0 0 0-.853.353v1.498H8.998a.5.5 0 1 0 0 .999h4a.5.5 0 0 0 .499-.5v-.792l2.292 2.29-2.292 2.29v-.792a.5.5 0 0 0-.5-.5H7.5V7.496a.5.5 0 0 0-.854-.353l-3.499 3.495a.499.499 0 0 0 0 .706l3.5 3.495a.5.5 0 0 0 .853-.353v-1.498h3.499a.5.5 0 1 0 0-.998h-4a.5.5 0 0 0-.5.499v.792l-2.291-2.29L6.499 8.7v.792a.5.5 0 0 0 .5.5h5.498v1.497a.5.5 0 0 0 .854.353l3.499-3.495a.499.499 0 0 0 0-.706"/></g></svg>