<svg xmlns="http://www.w3.org/2000/svg" width="68" height="68" viewBox="0 0 68 68">
    <defs>
        <linearGradient id="a" x1="50%" x2="50%" y1="0%" y2="100%">
            <stop offset="0%" stop-color="#FB6F9D"/>
            <stop offset="100%" stop-color="#F3806F"/>
        </linearGradient>
    </defs>
    <g fill="none" fill-rule="evenodd" transform="translate(1 1)">
        <circle cx="33" cy="33" r="33" fill="#FFF" stroke="url(#a)" stroke-width="1.5"/>
        <path fill="#F3806F" fill-rule="nonzero" d="M21.503 27.05v.84h-6.318v4.63h4.57v.84h-4.57V40h-2.178V27.05h8.496zm6.074 13.165a4.818 4.818 0 0 1-1.909-.381 4.87 4.87 0 0 1-2.607-2.573 4.648 4.648 0 0 1-.386-1.88c0-.8.117-1.541.351-2.222.235-.68.567-1.268.996-1.763.43-.494.946-.882 1.548-1.162.603-.28 1.275-.42 2.017-.42.651 0 1.25.116 1.797.347.547.231 1.017.54 1.41.928.395.387.7.835.919 1.343.218.507.327 1.038.327 1.591h-7.451c0 .671.086 1.293.259 1.866.172.573.415 1.067.727 1.484a3.45 3.45 0 0 0 1.113.977c.43.234.902.351 1.416.351.43 0 .844-.07 1.24-.21.398-.14.758-.324 1.08-.552.322-.227.597-.488.825-.78.228-.294.387-.596.479-.909l.576.254a4.624 4.624 0 0 1-.694 1.445c-.319.45-.691.842-1.118 1.177-.426.335-.89.6-1.391.796a4.166 4.166 0 0 1-1.524.293zm1.973-6.992c0-.378-.067-.73-.2-1.055a2.584 2.584 0 0 0-1.372-1.406 2.482 2.482 0 0 0-1.006-.205c-.3 0-.586.066-.86.2a2.405 2.405 0 0 0-.732.556c-.215.238-.392.52-.532.845-.14.326-.223.677-.25 1.055l4.952.01zm5.742-2.842l1.396-.567h.577V40h-1.973v-9.62zm-.156-4.21c0-.155.029-.302.088-.439a1.143 1.143 0 0 1 1.045-.693c.156 0 .302.03.439.088a1.143 1.143 0 0 1 .693 1.045c0 .156-.029.303-.088.44a1.143 1.143 0 0 1-1.044.693c-.157 0-.303-.03-.44-.088a1.143 1.143 0 0 1-.693-1.045zm19.228 17.882c-.631 0-1.261-.059-1.89-.176a12.78 12.78 0 0 1-1.82-.479 13.598 13.598 0 0 1-1.685-.708 15.57 15.57 0 0 1-1.49-.85 11.634 11.634 0 0 1-1.225-.907 7.84 7.84 0 0 1-.903-.894 5.845 5.845 0 0 1-2.027-.937 7.158 7.158 0 0 1-1.587-1.563 7.378 7.378 0 0 1-1.035-1.958 6.39 6.39 0 0 1-.37-2.124c0-.924.178-1.794.536-2.607a6.601 6.601 0 0 1 1.485-2.13 7.051 7.051 0 0 1 2.236-1.435c.86-.351 1.793-.527 2.803-.527 1.002 0 1.933.176 2.793.527.859.352 1.604.83 2.236 1.436a6.601 6.601 0 0 1 1.484 2.129c.358.813.537 1.683.537 2.607 0 .749-.133 1.486-.4 2.212a7.358 7.358 0 0 1-1.108 1.997 7.076 7.076 0 0 1-1.69 1.558 5.994 5.994 0 0 1-2.153.883c.143.43.382.86.718 1.29.335.43.735.815 1.2 1.157.466.342.985.618 1.558.83a5.145 5.145 0 0 0 1.797.317v.352zm-6.972-4.395c.729-.078 1.378-.278 1.948-.6a4.556 4.556 0 0 0 1.44-1.28c.39-.53.689-1.159.894-1.884.205-.726.307-1.539.307-2.437 0-.892-.1-1.709-.302-2.451-.202-.742-.498-1.382-.889-1.92a4.107 4.107 0 0 0-1.44-1.25c-.57-.295-1.223-.443-1.958-.443-.756 0-1.42.148-1.993.444a4.009 4.009 0 0 0-1.435 1.25c-.384.537-.674 1.177-.87 1.919a9.621 9.621 0 0 0-.292 2.451c0 .898.097 1.725.293 2.48.195.756.485 1.41.869 1.963.384.554.862.985 1.435 1.294.573.31 1.237.464 1.993.464z"/>
    </g>
</svg>
