<svg xmlns="http://www.w3.org/2000/svg" width="22" height="22" viewBox="0 0 22 22">
    <defs>
        <linearGradient id="a" x1="50%" x2="50%" y1="0%" y2="100%">
            <stop offset="0%" stop-color="#FB6F9D"/>
            <stop offset="100%" stop-color="#F3806F"/>
        </linearGradient>
        <linearGradient id="b" x1="50%" x2="50%" y1="0%" y2="100%">
            <stop offset="0%" stop-color="#FB6F9D"/>
            <stop offset="100%" stop-color="#F47E74"/>
        </linearGradient>
    </defs>
    <g fill="none" fill-rule="evenodd" transform="translate(1 1)">
        <circle cx="10" cy="10" r="10" stroke="url(#a)"/>
        <path fill="url(#b)" d="M14.82 10.62c-.111.24-.25.362-.417.367.078.088.143.212.195.37a1.4 1.4 0 0 1 .078.433c0 .359-.137.668-.413.928.094.166.14.346.14.538 0 .192-.045.383-.136.573a.87.87 0 0 1-.37.41c.025.155.038.3.038.436 0 .868-.5 1.302-1.499 1.302h-.944c-.681 0-1.57-.19-2.669-.57a4.387 4.387 0 0 0-1.073-.355 3.534 3.534 0 0 0-.257-.05 1.575 1.575 0 0 0-.246-.023h-.25v-4.99h.25a.672.672 0 0 0 .277-.07 1.32 1.32 0 0 0 .312-.21c.107-.094.207-.187.3-.278.094-.09.198-.205.313-.343a15.36 15.36 0 0 0 .515-.65 13.564 13.564 0 0 1 .78-.944 1.98 1.98 0 0 0 .464-.854c.097-.346.176-.672.238-.979.063-.306.162-.527.297-.663.5 0 .833.123.999.367.166.244.25.621.25 1.13 0 .307-.125.724-.375 1.252s-.375.942-.375 1.244h2.747c.26 0 .492.1.695.3a.95.95 0 0 1 .305.698c0 .182-.056.392-.168.632M5.85 14.83a.48.48 0 0 1-.352.148.48.48 0 0 1-.35-.148.48.48 0 0 1-.149-.351.48.48 0 0 1 .148-.35.48.48 0 0 1 .351-.149.48.48 0 0 1 .352.148.48.48 0 0 1 .148.351.48.48 0 0 1-.148.351m9.755-3.58c.255-.384.382-.807.382-1.27 0-.536-.197-1-.593-1.396a1.921 1.921 0 0 0-1.404-.593h-1.374c.25-.514.375-1.013.375-1.497 0-.608-.092-1.091-.274-1.45a1.715 1.715 0 0 0-.796-.792A2.668 2.668 0 0 0 10.743 4a.99.99 0 0 0-.703.289c-.223.218-.385.499-.483.842-.1.343-.179.672-.238.986-.06.315-.153.537-.277.667-.255.275-.534.608-.836.998-.525.68-.881 1.084-1.069 1.209H5a.964.964 0 0 0-.706.292.962.962 0 0 0-.293.706v4.99c0 .276.097.51.293.706.195.195.43.292.706.292h2.247c.115 0 .474.104 1.077.312.64.224 1.204.394 1.69.51.487.118.98.176 1.479.176h1.006c.734 0 1.325-.209 1.772-.627.448-.419.669-.99.664-1.712.312-.4.468-.863.468-1.388 0-.114-.008-.226-.023-.335a2.237 2.237 0 0 0 .226-1.661"/>
    </g>
</svg>
