<svg xmlns="http://www.w3.org/2000/svg" width="22" height="22" viewBox="0 0 22 22">
    <defs>
        <linearGradient id="a" x1="50%" x2="50%" y1="0%" y2="100%">
            <stop offset="0%" stop-color="#FB6F9D"/>
            <stop offset="100%" stop-color="#F3806F"/>
        </linearGradient>
        <linearGradient id="b" x1="50%" x2="50%" y1="0%" y2="100%">
            <stop offset="0%" stop-color="#FB6F9C"/>
            <stop offset="100%" stop-color="#F3806F"/>
        </linearGradient>
        <linearGradient id="c" x1="50%" x2="50%" y1="0%" y2="100%">
            <stop offset="0%" stop-color="#FB6F9C"/>
            <stop offset="100%" stop-color="#F3806F"/>
        </linearGradient>
    </defs>
    <g fill="none" fill-rule="evenodd" transform="translate(1 1)">
        <circle cx="10" cy="10" r="10" stroke="url(#a)"/>
        <path fill="url(#b)" d="M13.955 6.197a.588.588 0 0 0-.126-.19l-1.75-1.742a.585.585 0 0 0-.825 0 .579.579 0 0 0 0 .821l.755.752H8.75A.582.582 0 1 0 8.75 7h3.258l-.754.751a.579.579 0 0 0 .413.992.58.58 0 0 0 .412-.17l1.75-1.743a.576.576 0 0 0 .126-.633" transform="translate(4 3)"/>
        <path fill="url(#c)" d="M9.917 8.162a.582.582 0 0 0-.584.581v2.906H7V2.35a.582.582 0 0 0-.416-.556l-2.026-.606h4.775v2.906c0 .32.261.58.584.58.322 0 .583-.26.583-.58V.608c0-.32-.26-.58-.583-.58H.583c-.02 0-.04.008-.06.01a.587.587 0 0 0-.247.086C.263.132.247.133.236.142.23.146.228.152.223.156a.576.576 0 0 0-.155.183C.06.355.059.372.052.39.034.431.013.474.006.523.003.541.01.558.008.574.008.587 0 .598 0 .609V12.23c0 .277.197.515.469.569l5.833 1.162a.584.584 0 0 0 .698-.57v-.58h2.917c.322 0 .583-.26.583-.581V8.743c0-.32-.26-.58-.583-.58" transform="translate(4 3)"/>
    </g>
</svg>
