<svg xmlns="http://www.w3.org/2000/svg" width="24" height="24" viewBox="0 0 24 24">
    <path fill="#FFF" fill-rule="evenodd" d="M17.582 20.93a2.34 2.34 0 0 1-2.343-2.33 2.34 2.34 0 0 1 2.343-2.332 2.34 2.34 0 0 1 2.344 2.331 2.34 2.34 0 0 1-2.344 2.332M6.418 14.828a2.34 2.34 0 0 1-2.344-2.332 2.34 2.34 0 0 1 2.344-2.332 2.34 2.34 0 0 1 2.343 2.332 2.342 2.342 0 0 1-2.343 2.332M17.582 4.069a2.34 2.34 0 0 1 2.344 2.332 2.34 2.34 0 0 1-2.344 2.331 2.34 2.34 0 0 1-2.343-2.331 2.342 2.342 0 0 1 2.343-2.332m0 11.137c-1.098 0-2.077.521-2.704 1.326l-5.245-2.916a3.392 3.392 0 0 0-.004-2.244l5.242-2.912a3.414 3.414 0 0 0 2.707 1.334c1.88 0 3.414-1.523 3.414-3.397A3.408 3.408 0 0 0 17.578 3a3.408 3.408 0 0 0-3.413 3.397c0 .394.067.773.194 1.124l-5.237 2.912a3.403 3.403 0 0 0-2.708-1.334C4.534 9.1 3 10.622 3 12.496c0 1.874 1.534 3.397 3.418 3.397a3.42 3.42 0 0 0 2.712-1.338l5.24 2.916a3.368 3.368 0 0 0-.197 1.132c0 1.87 1.53 3.397 3.413 3.397A3.408 3.408 0 0 0 21 18.603c0-1.874-1.534-3.397-3.418-3.397"/>
</svg>
