<svg xmlns="http://www.w3.org/2000/svg" xmlns:xlink="http://www.w3.org/1999/xlink" width="68" height="68" viewBox="0 0 68 68">
    <defs>
        <linearGradient id="a" x1="50%" x2="50%" y1="0%" y2="100%">
            <stop offset="0%" stop-color="#FB709D"/>
            <stop offset="100%" stop-color="#F3806F"/>
        </linearGradient>
        <path id="b" d="M0 0h34v39H0z"/>
    </defs>
    <g fill="none" fill-rule="evenodd" transform="translate(1 1)">
        <circle cx="33" cy="33" r="33" fill="#FFF" stroke="url(#a)" stroke-width="1.5"/>
        <path fill="#FFC107" d="M46 49.5c0-1.9-2.9-3.5-6.5-3.5S33 47.6 33 49.5s2.9 3.5 6.5 3.5 6.5-1.6 6.5-3.5M26.5 53c-3.6 0-6.5-1.6-6.5-3.5s2.9-3.5 6.5-3.5 6.5 1.6 6.5 3.5-2.9 3.5-6.5 3.5"/>
        <g transform="translate(16 13)">
            <mask id="c" fill="#fff">
                <use xlink:href="#b"/>
            </mask>
            <path fill="#37474F" d="M30.2 18.2c-.1-.3-.2-.6-.3-1 .1-.5.1-1 .1-1.5 0-1.4-.1-2.6-.1-3.6C29.9 5.4 24.1 0 17 0 9.9 0 4 5.4 4 12.1v3.6c0 .5 0 1 .1 1.5-.1.3-.2.6-.3 1-1.9 2.7-3.8 6-3.8 8.5C0 31.5 1.4 31 1.4 31c.6 0 1.6-1 2.5-2.1C6 34.8 11 39 17 39s11-4.2 13.1-10.1C31 30 32 31 32.6 31c0 0 1.4.5 1.4-4.3 0-2.5-1.9-5.9-3.8-8.5" mask="url(#c)"/>
        </g>
        <path fill="#ECEFF1" d="M23.7 32c-.5 1.5-.7 3.1-.7 4.8C23 44.1 27.5 50 33 50s10-5.9 10-13.2c0-1.7-.3-3.3-.7-4.8H23.7z"/>
        <path fill="#FFF" d="M36.5 19c-1.4 0-2.5 1.6-2.5 3.5s1.1 3.5 2.5 3.5 2.5-1.6 2.5-3.5-1.1-3.5-2.5-3.5M32 22.5c0 1.9-1.1 3.5-2.5 3.5S27 24.4 27 22.5s1.1-3.5 2.5-3.5 2.5 1.6 2.5 3.5"/>
        <path fill="#37474F" d="M36 21c-.6 0-1 .7-1 1.5s.4-.5 1-.5 1 1.3 1 .5-.4-1.5-1-1.5m-5 1.5c0 .8-.4 1.5-1 1.5s-1-.7-1-1.5.4-1.5 1-1.5 1 .7 1 1.5"/>
        <path fill="#FFC107" d="M41 28.5c0 .8-3.6 2.5-8 2.5s-8-1.7-8-2.5 3.6-1.5 8-1.5 8 .7 8 1.5"/>
        <path fill="#FF3D00" d="M47.7 30.2c-.4-1.5-1-2.2-2.1-1.3 0 0-5.9 3.1-12.5 3.1v.1-.1c-6.6 0-12.5-3.1-12.5-3.1-1.1-.8-1.7-.2-2.1 1.3-.4 1.5-.7 2 .7 2.8.1.1 1.4.8 3.4 1.7-.6 3.5-.5 6.8-.5 7 .1 1.5 1.3 1.3 2.9 1.3 1.6-.1 2.9 0 2.9-1.6 0-.9 0-2.9.3-5 1.6.3 3.2.6 5 .6 7.3 0 13.7-3.9 13.9-4 1.2-.7.9-1.2.6-2.8"/>
        <path fill="#DD2C00" d="M22.2 36.7c1.6.6 3.5 1.3 5.6 1.7 0-.6.1-1.3.2-2-2.1-.5-4-1.1-5.5-1.7-.1.7-.2 1.4-.3 2"/>
    </g>
</svg>
