<svg xmlns="http://www.w3.org/2000/svg" width="16" height="15" viewBox="0 0 16 15"><defs><linearGradient id="a" x1="50%" x2="50%" y1="0%" y2="100%"><stop offset="0%" stop-color="#FB7198"/><stop offset="100%" stop-color="#F37E71"/></linearGradient><linearGradient id="b" x1="50%" x2="50%" y1="0%" y2="100%"><stop offset="0%" stop-color="#FB7198"/><stop offset="100%" stop-color="#F37E71"/></linearGradient></defs><g fill="none" fill-rule="evenodd"><path fill="url(#a)" d="M14.68 7.029a.798.798 0 0 0-.81.785c0 3.096-2.598 5.615-5.792 5.615-1.931 0-3.716-.928-4.789-2.456l1.026-.547a.5.5 0 0 0 .266-.497.509.509 0 0 0-.373-.429L1.461 8.73a.532.532 0 0 0-.396.042.507.507 0 0 0-.248.301L.02 11.736a.495.495 0 0 0 .174.534.533.533 0 0 0 .576.048l1.095-.585C3.228 13.763 5.554 15 8.078 15c4.088 0 7.413-3.224 7.413-7.186a.798.798 0 0 0-.81-.785"/><path fill="url(#b)" d="M15.79 2.73a.534.534 0 0 0-.575-.048l-1.095.585C12.758 1.237 10.432 0 7.908 0 3.82 0 .495 3.224.495 7.186c0 .434.363.785.81.785.447 0 .81-.351.81-.785 0-3.096 2.599-5.615 5.793-5.615 1.931 0 3.716.928 4.789 2.456l-1.026.547a.5.5 0 0 0-.266.497c.024.203.17.372.373.429l2.747.772a.534.534 0 0 0 .396-.043.508.508 0 0 0 .248-.301l.796-2.664a.495.495 0 0 0-.174-.534"/></g></svg>