<svg xmlns="http://www.w3.org/2000/svg" width="22" height="22" viewBox="0 0 22 22"><defs><linearGradient id="a" x1="50%" x2="50%" y1="0%" y2="100%"><stop offset="0%" stop-color="#FB6F9D"/><stop offset="100%" stop-color="#F3806F"/></linearGradient><linearGradient id="b" x1="50%" x2="50%" y1="0%" y2="100%"><stop offset="0%" stop-color="#FB6F9D"/><stop offset="100%" stop-color="#F3806F"/></linearGradient></defs><g fill="none" fill-rule="evenodd" transform="translate(1 1)"><circle cx="10" cy="10" r="10" stroke="url(#a)"/><path fill="url(#a)" d="M.986 6.726L8.29 2.26l1.906 5.601-8.584.706-.627-1.842zM3.293 9.31l.92-.075.786 2.31c.038.11.03.23-.024.335a.455.455 0 0 1-.602.196.439.439 0 0 1-.225-.254L3.293 9.31zm8.16-.942a.439.439 0 0 1-.224-.254l-2.267-6.66a.427.427 0 0 1 .025-.334.455.455 0 0 1 .827.058l2.266 6.66c.038.11.029.23-.025.334a.455.455 0 0 1-.602.196zM.023 6.675l.85 2.498a.441.441 0 0 0 .225.253.456.456 0 0 0 .238.045l1.038-.085.923 2.713c.113.333.353.604.674.761a1.364 1.364 0 0 0 1.806-.588c.16-.314.187-.67.073-1.004l-.717-2.109 5.408-.445c.13.189.308.338.511.438.308.15.675.187 1.027.072a1.311 1.311 0 0 0 .852-1.664L10.665.9C10.43.213 9.667-.161 8.963.068a1.32 1.32 0 0 0-.92 1.31L.212 6.165a.434.434 0 0 0-.188.51zM13.103 2.773l.835-1.178c.144-.203.028-.45-.26-.551-.287-.102-.637-.02-.78.183l-.836 1.178c-.144.203-.028.45.26.551.287.102.637.02.78-.183" transform="translate(2 4)"/><path fill="url(#b)" d="M15.735 3.638c.203-.057.313-.242.245-.414-.067-.171-.287-.264-.49-.207l-1.225.345c-.203.057-.313.242-.245.414a.35.35 0 0 0 .194.19.45.45 0 0 0 .296.017l1.225-.345z" transform="translate(2 4)"/><path fill="url(#a)" d="M13.227 6.103l1.178.835c.203.144.45.028.551-.26.102-.287.02-.637-.183-.78l-1.178-.836c-.203-.144-.45-.028-.551.26-.102.287-.02.637.183.78" transform="translate(2 4)"/></g></svg>