<svg xmlns="http://www.w3.org/2000/svg" width="20" height="19" viewBox="0 0 20 19">
    <defs>
        <linearGradient id="a" x1="50%" x2="50%" y1="0%" y2="100%">
            <stop offset="0%" stop-color="#FB6F9D"/>
            <stop offset="100%" stop-color="#F3806F"/>
        </linearGradient>
        <linearGradient id="b" x1="50%" x2="50%" y1="0%" y2="100%">
            <stop offset="0%" stop-color="#FB6F9D"/>
            <stop offset="100%" stop-color="#F3806F"/>
        </linearGradient>
        <linearGradient id="c" x1="50%" x2="50%" y1="0%" y2="100%">
            <stop offset="0%" stop-color="#FB6F9D"/>
            <stop offset="100%" stop-color="#F3806F"/>
        </linearGradient>
    </defs>
    <g fill="none" fill-rule="evenodd">
        <path fill="url(#a)" d="M6.75 2.986c0 .712-.588 1.29-1.31 1.29-.722 0-1.31-.578-1.31-1.29 0-.71.588-1.29 1.31-1.29.722 0 1.31.58 1.31 1.29m12.415-.82H8.296A2.975 2.975 0 0 0 5.44.053a2.975 2.975 0 0 0-2.856 2.111H.834A.827.827 0 0 0 0 2.986c0 .454.373.821.833.821h1.75A2.975 2.975 0 0 0 5.44 5.918a2.975 2.975 0 0 0 2.856-2.11h10.869c.46 0 .833-.368.833-.822a.827.827 0 0 0-.833-.82"/>
        <path fill="url(#b)" d="M11.308 9.509c0 .71-.587 1.29-1.309 1.29s-1.31-.58-1.31-1.29c0-.712.588-1.29 1.31-1.29.722 0 1.31.578 1.31 1.29m7.856-.821h-6.31A2.975 2.975 0 0 0 10 6.576a2.975 2.975 0 0 0-2.856 2.112H.833a.827.827 0 0 0-.833.82c0 .454.373.822.833.822h6.31a2.975 2.975 0 0 0 2.856 2.11 2.975 2.975 0 0 0 2.856-2.11h6.31c.46 0 .833-.368.833-.821a.827.827 0 0 0-.833-.821"/>
        <path fill="url(#c)" d="M15.867 16.03c0 .712-.587 1.29-1.309 1.29s-1.31-.578-1.31-1.29c0-.71.588-1.29 1.31-1.29.722 0 1.31.58 1.31 1.29m3.297-.82h-1.75a2.975 2.975 0 0 0-2.857-2.111 2.975 2.975 0 0 0-2.856 2.11H.833a.827.827 0 0 0-.833.822c0 .453.373.82.833.82h10.869a2.975 2.975 0 0 0 2.856 2.112 2.975 2.975 0 0 0 2.856-2.111h1.75c.461 0 .834-.368.834-.821a.827.827 0 0 0-.833-.821"/>
    </g>
</svg>
