<svg xmlns="http://www.w3.org/2000/svg" width="24" height="24" viewBox="0 0 24 24"><g fill="#FFF" fill-rule="evenodd"><path d="M18.087 9.129h-2.435a.916.916 0 0 0-.913.92c0 .507.409.919.913.919h1.522v9.193H6.826v-9.193h1.522a.916.916 0 0 0 .913-.92.916.916 0 0 0-.913-.919H5.913a.916.916 0 0 0-.913.92V21.08c0 .507.409.919.913.919h12.174a.916.916 0 0 0 .913-.92V10.049a.916.916 0 0 0-.913-.919"/><path d="M9.906 7.327l1.181-1.188v9.425c0 .508.409.92.913.92a.916.916 0 0 0 .913-.92V6.14l1.18 1.188a.907.907 0 0 0 1.292 0 .924.924 0 0 0 0-1.3l-2.74-2.758a.934.934 0 0 0-.066-.06c-.01-.01-.021-.016-.031-.024l-.041-.03-.039-.024-.038-.023-.04-.02-.04-.018-.04-.015-.045-.015-.04-.01c-.015-.005-.03-.01-.047-.012l-.046-.007-.042-.006A.93.93 0 0 0 12.005 3h-.01a.91.91 0 0 0-.085.005c-.014 0-.028.004-.041.006l-.047.007-.046.011-.041.01c-.015.005-.03.01-.043.016l-.042.015-.039.018-.042.02-.036.022-.04.025-.039.028c-.01.009-.022.016-.033.025a.927.927 0 0 0-.064.058l-.003.003-2.74 2.758a.924.924 0 0 0 0 1.3.909.909 0 0 0 1.292 0"/></g></svg>