<svg xmlns="http://www.w3.org/2000/svg" width="68" height="68" viewBox="0 0 68 68">
    <defs>
        <linearGradient id="a" x1="50%" x2="50%" y1="0%" y2="100%">
            <stop offset="0%" stop-color="#FB6F9D"/>
            <stop offset="100%" stop-color="#F3806F"/>
        </linearGradient>
    </defs>
    <g fill="none" fill-rule="evenodd" transform="translate(1 1)">
        <circle cx="33" cy="33" r="33" fill="#FFF" stroke="url(#a)" stroke-width="1.5"/>
        <path fill="#FFF" d="M42.09 38.083c-.545-5.316-6.908-8.983-14.545-8.158-4.454.458-8.545 2.383-10.818 5.133-1.454 1.742-2.09 3.759-1.909 5.775.455 4.859 5.818 8.25 12.546 8.25.636 0 1.272 0 2-.091 4.454-.459 8.545-2.384 10.818-5.134 1.454-1.741 2.09-3.758 1.909-5.775"/>
        <path fill="#D32F2F" d="M42.727 33.408c-.546-.183-.909-.275-.636-1.008.636-1.558.727-2.933 0-3.942-1.274-1.833-4.818-1.741-8.818-.091 0 0-1.273.55-.91-.459.637-2.016.546-3.666-.454-4.583-2.182-2.2-8 .092-13 5.042C15.182 32.125 13 36.067 13 39.458 13 46.058 21.364 50 29.637 50c10.726 0 17.909-6.233 17.909-11.183 0-3.025-2.546-4.675-4.819-5.409m-13.545 13.75c-6.455.642-12.09-2.291-12.545-6.508-.455-4.217 4.545-8.25 11-8.892 6.545-.641 12.09 2.292 12.545 6.509.455 4.308-4.455 8.25-11 8.891"/>
        <path fill="#263238" d="M29.818 34.6c-3.182-.825-6.727.734-8.09 3.484-1.364 2.84-.092 5.958 3.181 6.965 3.273 1.101 7.182-.549 8.546-3.574 1.363-2.933-.364-6.05-3.637-6.875m-2.636 6.967c-.637.917-2.091 1.375-3.182.917-1.09-.459-1.364-1.56-.727-2.384.636-.916 2-1.283 3.09-.916 1.182.365 1.546 1.466.819 2.383m3-2.2c-.273.458-.818.733-1.273.55-.454-.183-.545-.733-.364-1.192.273-.458.819-.733 1.182-.458.546.092.637.55.455 1.1"/>
        <path fill="#F9A825" d="M51.091 29.833c-.753 0-1.363.615-1.363 1.375s.61 1.375 1.363 1.375a1.37 1.37 0 0 0 1.364-1.375c0-.76-.611-1.375-1.364-1.375"/>
        <path fill="#F9A825" d="M47.545 28c0-3.025-2.454-5.5-5.454-5.5h-.727a1.384 1.384 0 0 0-1.182 1.375c0 .733.636 1.375 1.363 1.375H42c1.545 0 2.727 1.192 2.727 2.75 0 .275-.09.642-.182.917-.09.183-.09.275-.09.458 0 .733.636 1.375 1.363 1.375.546 0 1-.367 1.273-.825v-.092c0-.091 0-.091.09-.183.274-.55.364-1.1.364-1.65m4.819 3.667c-.182.55-.728.916-1.273.916-.727 0-1.364-.641-1.364-1.375 0-.183 0-.366.091-.55.273-.825.455-1.741.455-2.658 0-4.583-3.637-8.25-8.182-8.25-.364 0-.818 0-1.182.092h-.182c-.727 0-1.363-.642-1.363-1.375 0-.734.636-1.375 1.363-1.375.455-.092.91-.092 1.364-.092C48.09 17 53 21.95 53 28c0 1.283-.182 2.475-.636 3.667"/>
    </g>
</svg>
