<svg xmlns="http://www.w3.org/2000/svg" width="13" height="13" viewBox="0 0 13 13">
    <g fill="#A5A5A5" fill-rule="evenodd">
        <path d="M6.444 11.532c-2.797 0-5.073-2.252-5.073-5.021 0-2.77 2.276-5.022 5.073-5.022 2.798 0 5.073 2.252 5.073 5.022 0 2.769-2.275 5.021-5.073 5.021m0-11.4C2.891.131 0 2.992 0 6.51c0 3.517 2.89 6.379 6.444 6.379s6.445-2.862 6.445-6.38c0-3.517-2.891-6.379-6.445-6.379"/>
        <path d="M9.803 6.314H6.907V2.867a.528.528 0 0 0-.531-.526.528.528 0 0 0-.53.526v3.972c0 .29.237.525.53.525h3.427c.293 0 .53-.235.53-.525a.528.528 0 0 0-.53-.525"/>
    </g>
</svg>
