<svg xmlns="http://www.w3.org/2000/svg" width="63" height="14" viewBox="0 0 63 14"><g fill="#FFF" fill-rule="nonzero"><path d="M8.167 2.361c0 .052-.065.18-.196.388-.131.208-.324.512-.58.913-.256.401-.566.913-.93 1.536a42.04 42.04 0 0 0-1.126 2.068c-.443.87-.763 1.554-.96 2.051-.196.498-.294.926-.294 1.284 0 .284.151.535.452.75a8.442 8.442 0 0 0 1.075-1.014c.353-.393.7-.83 1.045-1.314.344-.483.742-1.095 1.194-1.834.452-.739.855-1.419 1.207-2.038A3.322 3.322 0 0 0 9 4.997a.369.369 0 0 1-.03-.128c0-.267.054-.517.162-.75.108-.234.243-.461.405-.683.162-.222.405-.534.73-.938a.388.388 0 0 1 .315-.162c.205 0 .307.13.307.392s-.107.673-.32 1.233c-.213.56-.527 1.218-.942 1.974a37.12 37.12 0 0 1-1.549 2.538 51.481 51.481 0 0 1-2.094 2.93c-.79 1.03-1.356 1.544-1.697 1.544-.193 0-.412-.107-.657-.32-.244-.213-.455-.505-.631-.874a2.72 2.72 0 0 1-.264-1.186c0-.25.052-.571.157-.964.106-.392.27-.863.495-1.412.225-.548.48-1.09.763-1.624.296-.563.556-1.03.781-1.4.225-.369.48-.78.763-1.232.285-.452.427-.698.427-.738 0-.085-.057-.128-.17-.128-.33 0-.77.168-1.319.504-.548.335-1.263.844-2.145 1.526-.335.262-.547.431-.635.508-.088.077-.132.14-.132.192 0 .068.054.102.162.102.045 0 .199-.017.46-.051.262-.034.47-.051.623-.051.256 0 .384.045.384.136 0 .08-.053.143-.158.188-.105.045-.25.091-.435.136L2 6.447a7.373 7.373 0 0 0-1.088.392c-.383.171-.604.256-.66.256-.109 0-.175-.04-.201-.119a1.417 1.417 0 0 1-.038-.392c0-.808.133-1.432.4-1.873.268-.44.745-.9 1.433-1.377.785-.546 1.536-1 2.252-1.36.717-.362 1.335-.626 1.856-.794.52-.168.902-.252 1.147-.252.239 0 .476.154.712.461.236.307.354.631.354.972zm3.94 2.141c.598.029 1.024.069 1.28.12.256.05.384.153.384.307 0 .068-.021.115-.064.14a.599.599 0 0 1-.209.06c-.097.014-.21.033-.341.056-.193.034-.512.1-.955.2-.444.1-.688.15-.734.15-.222 0-.333-.14-.333-.419 0-.25.053-.571.158-.963.105-.393.248-.758.427-1.096.179-.339.368-.58.567-.721.233-.165.596-.331 1.087-.5.492-.167 1.044-.31 1.655-.426a9.008 9.008 0 0 1 1.676-.175c.256 0 .445.036.568.107a.597.597 0 0 1 .26.29c.05.122.136.371.256.746a3.8 3.8 0 0 1 .17 1.186c0 .54-.125 1.007-.375 1.399-.25.392-.597.753-1.04 1.083-.444.33-1.22.84-2.325 1.531a90.4 90.4 0 0 0-2.58 1.66c-.057.04-.174.115-.35.225-.176.111-.333.226-.47.346-.136.12-.275.273-.417.46.762-.073 1.967-.281 3.616-.622.45-.097.886-.204 1.31-.32.423-.117.678-.175.763-.175.142 0 .213.071.213.213 0 .131-.03.292-.09.482-.059.19-.146.384-.26.58a2.166 2.166 0 0 1-.4.508c-.75.7-2.2 1.049-4.35 1.049-.558 0-.93-.088-1.118-.264-.114-.103-.233-.333-.358-.691-.125-.359-.188-.623-.188-.794 0-.295.145-.658.435-1.087.29-.43.688-.87 1.194-1.322a10.106 10.106 0 0 1 1.672-1.207c1.854-1.058 2.838-1.627 2.952-1.706.415-.285.74-.572.976-.862.236-.29.354-.523.354-.7a.425.425 0 0 0-.192-.37c-.128-.088-.308-.132-.541-.132-.37 0-.815.066-1.335.2a8.726 8.726 0 0 0-1.578.58 6.05 6.05 0 0 0-1.37.874zm8.565 2.431l2.601-3.88c-.591.022-1.214.107-1.868.255-.654.148-1.214.306-1.68.474-.466.167-.883.327-1.25.477-.367.15-.63.258-.789.32a.205.205 0 0 1-.12-.043c-.039-.028-.059-.062-.059-.102 0-.045.132-.324.397-.836.264-.512.575-1.06.934-1.646 1.99-.71 3.747-1.066 5.271-1.066 1.763 0 2.986.375 3.668 1.126.244.261.434.584.567.968.134.384.2.763.2 1.139 0 .852-.177 1.627-.533 2.324a5.374 5.374 0 0 1-1.522 1.812c-.66.512-1.436.903-2.329 1.173-.892.27-1.87.405-2.934.405-.188 0-.571-.034-1.151-.102l-.768 1.399c.08.12.12.216.12.29 0 .176-.04.324-.12.444l-.452.673c-.188.279-.314.464-.38.555a1.27 1.27 0 0 1-.222.239.385.385 0 0 1-.243.102c-.165 0-.27-.05-.315-.15a1.017 1.017 0 0 1-.068-.413c0-.25.123-.647.37-1.19.248-.543.622-1.264 1.122-2.162a1.574 1.574 0 0 1-.622-.401c-.148-.165-.222-.327-.222-.486 0-.353.202-.68.605-.981.404-.302 1.001-.54 1.792-.717zm.887.23l-.486.82c.216.01.408.022.575.034.168.011.309.017.423.017.995 0 1.858-.134 2.588-.401.731-.268 1.311-.599 1.74-.994.43-.395.741-.792.934-1.19.194-.398.29-.73.29-.998 0-.37-.147-.66-.443-.87-.296-.21-.72-.354-1.275-.43-.555-.077-1.27-.116-2.146-.116.012.063.017.14.017.23 0 .296-.156.686-.469 1.17l-1.484 2.328 1.118-.128c.09 0 .136.042.136.128 0 .074-.074.125-.222.153l-1.296.248zm13.05-3.915l.465-.119c.157-.04.316-.074.478-.102.162-.029.32-.043.473-.043.33 0 .613.074.849.222.236.148.412.348.529.601.116.253.175.528.175.823 0 .46-.084.988-.252 1.583a9.972 9.972 0 0 1-.72 1.812 11.08 11.08 0 0 1-1.101 1.74 6.84 6.84 0 0 1-2.069 1.787c-.804.452-1.542.678-2.213.678-.495 0-.931-.135-1.31-.405-.378-.27-.673-.662-.886-1.177-.214-.515-.32-1.119-.32-1.813 0-.932.254-1.866.763-2.802a10.678 10.678 0 0 1 1.928-2.541c.776-.76 1.56-1.368 2.35-1.826.79-.458 1.433-.686 1.927-.686.404 0 .714.123.93.37.216.248.418.647.606 1.199-.529.017-.99.081-1.382.192-.392.11-.799.28-1.22.507zM32.46 4.98c-.397.426-.8.977-1.206 1.65a12.715 12.715 0 0 0-.985 1.984c-.25.648-.376 1.143-.376 1.484 0 .847.396 1.27 1.186 1.27.552 0 1.264-.372 2.137-1.117a11.258 11.258 0 0 0 2.277-2.69c.646-1.05.968-2.004.968-2.862 0-.632-.25-.947-.75-.947-.387 0-.86.153-1.416.46-.558.307-1.092.742-1.604 1.305-.182.205-.543.706-1.083 1.502.102-.535.386-1.214.853-2.039zM43.091 11.215l-3.216-1.57c-.818 1.121-1.276 1.86-1.373 2.219-.068.255-.22.47-.456.644-.236.173-.405.26-.508.26-.29 0-.435-.111-.435-.333 0-.125.172-.485.516-1.079.344-.594.818-1.295 1.42-2.103a7.235 7.235 0 0 1-.622-.273c-.08-.045-.111-.132-.094-.26s.117-.328.299-.601c.159-.239.278-.4.358-.482a.895.895 0 0 1 .281-.196c.108-.048.222-.081.341-.098.12-.017.455-.06 1.007-.128a499.605 499.605 0 0 1 2.695-3.617c-.892.12-1.515.22-1.868.299-.375.074-.69.135-.942.183-.253.048-.43.091-.533.128-.103.037-.154.09-.154.158 0 .062.063.105.188.128.125.023.283.034.473.034s.339.007.444.021c.105.014.158.047.158.098 0 .057-.07.09-.21.098-.139.009-.53.027-1.172.056-.364.011-.67.023-.917.034-.248.011-.42.017-.516.017a.398.398 0 0 1-.307-.12.445.445 0 0 1-.111-.315c0-.097.054-.276.162-.537.108-.262.261-.526.46-.794a2.27 2.27 0 0 1 .683-.622c.29-.177.74-.354 1.352-.533.611-.18 1.29-.325 2.038-.435.748-.111 1.489-.167 2.222-.167.444 0 .878.026 1.301.077.424.051.808.114 1.152.188.344.074.615.148.814.221.518.171.914.43 1.19.777.276.347.414.728.414 1.143 0 .403-.07.797-.209 1.181A3.424 3.424 0 0 1 47.74 6.78c-.33.17-.83.344-1.501.52a22.11 22.11 0 0 1-2.431.47c-.95.136-2.01.235-3.182.298a52.22 52.22 0 0 1 4.372 1.753c.52.241.928.439 1.224.592.415.217.685.373.81.47a.676.676 0 0 1 .247.375c.04.153.06.406.06.76 0 .397-.024.691-.073.882-.048.19-.152.286-.31.286-.052 0-.187-.056-.406-.167a31.27 31.27 0 0 1-.908-.486 78.384 78.384 0 0 0-1.054-.571 48.486 48.486 0 0 0-1.497-.747zm.75-7.702l.014.11a1.303 1.303 0 0 1-.145.695c-.1.209-.228.422-.384.64-.157.22-.39.532-.7.939l-.857 1.122a57.064 57.064 0 0 0 3.058-.657c.844-.21 1.54-.422 2.085-.636.546-.213.957-.437 1.233-.673.276-.236.414-.482.414-.738 0-.285-.289-.508-.866-.67-.577-.162-1.284-.243-2.12-.243a12.136 12.136 0 0 0-1.224.064c-.264.026-.433.041-.507.047zM52.898 8.699c1.017-1.666 1.778-2.978 2.281-3.936.503-.959.755-1.569.755-1.83a.31.31 0 0 0-.102-.239.342.342 0 0 0-.24-.094c-.175 0-.673.17-1.492.512-.676.284-1.171.51-1.484.678-.313.168-.743.408-1.292.72-.549.314-.863.47-.943.47-.159 0-.239-.11-.239-.333 0-.42.276-.986.828-1.697.551-.71 1.293-1.334 2.226-1.868.114-.074.17-.068.17.017 0 .028-.068.094-.204.196a3.378 3.378 0 0 0-.363.311 2.705 2.705 0 0 0-.354.474A62.84 62.84 0 0 1 55.077.817c.56-.244 1.04-.366 1.437-.366.347 0 .62.072.819.217.199.145.299.354.299.627 0 .239-.096.586-.286 1.04-.19.456-.468 1.009-.832 1.66a85.36 85.36 0 0 1-1.113 1.932L53.35 9.38a84.49 84.49 0 0 1 3.045-3.625c.927-1.035 1.734-1.876 2.422-2.525.688-.648 1.268-1.135 1.74-1.462.472-.327.82-.49 1.04-.49.08 0 .174.074.282.225.108.15.205.334.29.55.086.216.128.393.128.53 0 .374-.095.747-.285 1.117-.19.37-.474.813-.85 1.33-1.068 1.445-1.849 2.582-2.34 3.412-.492.83-.738 1.498-.738 2.005 0 .38.199.571.597.571.182 0 .395-.068.64-.205a6.06 6.06 0 0 0 .878-.63c.341-.285.685-.595 1.032-.93l.017.665c-.489.5-.927.928-1.313 1.283-.387.356-.752.667-1.097.934a5.75 5.75 0 0 1-.925.606c-.273.137-.512.205-.716.205a.906.906 0 0 1-.713-.303c-.179-.202-.268-.468-.268-.798 0-.307.066-.678.2-1.113.134-.435.338-.937.614-1.505.276-.569.617-1.186 1.024-1.851a36.83 36.83 0 0 1 1.377-2.081c.5-.717.75-1.177.75-1.382 0-.12-.062-.18-.187-.18-.506 0-1.66 1.01-3.463 3.029a35.843 35.843 0 0 0-1.454 1.774 1184.941 1184.941 0 0 0-2.094 2.73c-.176.233-.327.35-.452.35-.137 0-.316-.112-.538-.333-.221-.222-.332-.384-.332-.487 0-.12.158-.418.473-.895.316-.478.57-.879.764-1.203z"/></g></svg>