<svg xmlns="http://www.w3.org/2000/svg" width="24" height="24" viewBox="0 0 24 24"><g fill="#F3806F"><path d="M21.55 6.404c.29.124.435.338.436.644v11.883c0 .305-.145.52-.435.644a.793.793 0 0 1-.28.054.67.67 0 0 1-.501-.207l-4.495-4.401v1.813c0 .866-.314 1.607-.942 2.222a3.127 3.127 0 0 1-2.27.923H5.212a3.127 3.127 0 0 1-2.27-.923C2.314 18.441 2 17.7 2 16.834V9.145c0-.866.314-1.607.942-2.222A3.127 3.127 0 0 1 5.212 6h7.851c.885 0 1.641.308 2.27.923.628.615.942 1.356.942 2.222v1.802l4.495-4.39a.67.67 0 0 1 .502-.208c.089 0 .182.019.278.055zM13 13l-5-3v6l5-3z"/></g></svg>