<svg xmlns="http://www.w3.org/2000/svg" width="22" height="22" viewBox="0 0 22 22"><defs><linearGradient id="a" x1="50%" x2="50%" y1="0%" y2="100%"><stop offset="0%" stop-color="#FB6F9D"/><stop offset="100%" stop-color="#F3806F"/></linearGradient><linearGradient id="b" x1="50%" x2="50%" y1="0%" y2="100%"><stop offset="0%" stop-color="#FB6F9D"/><stop offset="100%" stop-color="#F3806F"/></linearGradient></defs><g fill="none" fill-rule="evenodd" transform="translate(1 1)"><circle cx="10" cy="10" r="10" stroke="url(#a)"/><path fill="url(#b)" d="M10.556 12.953A.551.551 0 0 1 10 13.5a.551.551 0 0 1-.556-.547c0-.302.25-.547.556-.547.307 0 .556.245.556.547zm1.037-3.186c.064.902-.478 1.014-.84 1.976-.254.679-1.296.299-1.042-.38.407-1.084.8-1.134.774-1.521a.488.488 0 0 0-.45-.442.483.483 0 0 0-.521.477.551.551 0 0 1-.556.547.551.551 0 0 1-.555-.547c0-.907.782-1.632 1.71-1.568.79.053 1.426.68 1.48 1.458zm2.296 6.14H6.11V4.093h5.159l2.619 2.578v9.234zm.948-9.848L11.893 3.16A.56.56 0 0 0 11.5 3H5.556A.551.551 0 0 0 5 3.547v12.906c0 .302.249.547.556.547h8.888a.551.551 0 0 0 .556-.547V6.445a.543.543 0 0 0-.163-.386z"/></g></svg>