<svg xmlns="http://www.w3.org/2000/svg" width="68" height="68" viewBox="0 0 68 68">
    <defs>
        <linearGradient id="a" x1="50%" x2="50%" y1="0%" y2="100%">
            <stop offset="0%" stop-color="#FB6F9D"/>
            <stop offset="100%" stop-color="#F3806F"/>
        </linearGradient>
    </defs>
    <g fill="none" fill-rule="evenodd" transform="translate(1 1)">
        <circle cx="33" cy="33" r="33" fill="#FFF" stroke="url(#a)" stroke-width="1.5"/>
        <path fill="#8BC34A" d="M15.293 51c-.69 0-1.293-.6-1.293-1.286 0-4.8 1.207-16.714 12.241-23.828.604-.343 1.38-.257 1.81.343.432.6.26 1.371-.344 1.8-10.086 6.428-11.12 17.314-11.12 21.685 0 .686-.604 1.286-1.294 1.286"/>
        <path fill="#03A9F4" d="M26.931 15c-6.638 0-12.069 5.4-12.069 12 0 1.457.259 2.914.776 4.2.172.429.69.771 1.207.771.69 0 1.293-.6 1.293-1.285 0-.172 0-.343-.086-.429-.431-1.028-.604-2.143-.604-3.257 0-5.229 4.224-9.429 9.483-9.429s9.483 4.2 9.483 9.429-4.224 9.429-9.483 9.429a8.72 8.72 0 0 1-3.362-.686c-.172-.086-.345-.086-.431-.086-.69 0-1.293.6-1.293 1.286 0 .514.345 1.028.776 1.2 1.379.514 2.845.857 4.31.857C33.569 39 39 33.6 39 27s-5.431-12-12.069-12m0 7.714c2.414 0 4.31 1.886 4.31 4.286 0 2.4-1.896 4.286-4.31 4.286-2.414 0-4.31-1.886-4.31-4.286 0-2.4 1.896-4.286 4.31-4.286"/>
        <g>
            <path fill="#8BC34A" d="M52.276 51a.737.737 0 0 0 .724-.714c0-2.667-.676-9.286-6.855-13.238-.338-.19-.773-.143-1.014.19-.241.333-.145.762.193 1 5.648 3.572 6.228 9.62 6.228 12.048 0 .38.338.714.724.714"/>
            <path fill="#03A9F4" d="M45.759 31c3.717 0 6.758 3 6.758 6.667A6.27 6.27 0 0 1 52.083 40c-.097.238-.386.429-.676.429a.737.737 0 0 1-.724-.715c0-.095 0-.19.048-.238.241-.571.338-1.19.338-1.81 0-2.904-2.366-5.237-5.31-5.237-2.945 0-5.31 2.333-5.31 5.238 0 2.904 2.365 5.238 5.31 5.238.675 0 1.303-.143 1.882-.381.097-.048.193-.048.242-.048.386 0 .724.334.724.714 0 .286-.193.572-.435.667-.772.286-1.593.476-2.413.476-3.718 0-6.759-3-6.759-6.666C39 34 42.041 31 45.759 31m0 4.286c-1.352 0-2.414 1.047-2.414 2.38 0 1.334 1.062 2.382 2.414 2.382 1.351 0 2.413-1.048 2.413-2.381 0-1.334-1.062-2.381-2.413-2.381"/>
        </g>
    </g>
</svg>
